# xmcd
#
# Track frame offsets: 
#        150
#        13114
#        26062
#        39859
#        52895
#        66219
#        80007
#        90682
#        104347
#        111585
#        122546
#        137477
#        150608
#        164223
#        177757
#        191695
#        204066
#        216399
#        230238
#        244110
#
# Disc length: 3412 seconds
#
# Revision: 1
# Processed by: cddbd v1.5.2PL0 Copyright (c) Steve Scherf et al.
# Submitted via: ExactAudioCopy v1.0b3
#
DISCID=180d5214
DTITLE=Various Artist - The Ultimate 30's and 40's Reefer Songs
DYEAR=2004
DGENRE=Jazz
TTITLE0=Fats Waller - The Reefer Song '43
TTITLE1=Cab Calloway - Reefer Man '32
TTITLE2=Ella Fitzgerald with Chick Webb and His Orchestra - Wasky Dust
TTITLE2='38
TTITLE3=The Cats and The Fiddle - Killin' Jive '39
TTITLE4=Barney Bigard Sextet - Sweet Marihuana Brown '45
TTITLE5=Sidney Bechet with Noble Sissle's Swingers - Viper Mad '38
TTITLE6=Lil Johnson - Mellow Stuff '37
TTITLE7=Stuff Smith and His Onyx Club Boys - Here Comes The Man With T
TTITLE7=he Jive '36
TTITLE8=Buck Washington - Save The Roach For Me '44
TTITLE9=Chick Webb and His Orchestra - When I Get Low I Get High '36
TTITLE10=The Harlem Hamfats - Weed Smokers' Dream '36
TTITLE11=Georgia White - The Stuff Is Here '37
TTITLE12=Jazz Gillum and His Jazz Boys - Reefer Head Woman '38
TTITLE13=Bea Foote - Weed '38
TTITLE14=Tampa Red and The Chicago Five - I'm Gonna Get High '37
TTITLE15=Buster Bailey's Rhythm Busters - Light Up '38
TTITLE16=Trixie Smith - Jack I'm Mellow '38
TTITLE17=Larry Adler - Smoking Reefers '38
TTITLE18=Yack Taylor - Knockin' Myself Out '41
TTITLE19=Andy Kirk and His Twelve Clouds Of Joy - All The Jive Is Gone
TTITLE19='36
EXTD=
EXTT0=
EXTT1=
EXTT2=
EXTT3=
EXTT4=
EXTT5=
EXTT6=
EXTT7=
EXTT8=
EXTT9=
EXTT10=
EXTT11=
EXTT12=
EXTT13=
EXTT14=
EXTT15=
EXTT16=
EXTT17=
EXTT18=
EXTT19=
PLAYORDER=
